<svg width="18" height="18" viewBox="0 0 18 18" fill="none" xmlns="http://www.w3.org/2000/svg">
<path d="M8.77691 2.1036C8.84788 2.07263 8.92447 2.05664 9.00191 2.05664C9.07934 2.05664 9.15594 2.07263 9.22691 2.1036C12.0005 3.3159 14.6461 4.80202 17.1244 6.53985C17.2117 6.6011 17.2799 6.68592 17.3208 6.78442C17.3618 6.88292 17.3739 6.99104 17.3557 7.09616C17.3376 7.20128 17.2899 7.29907 17.2183 7.37811C17.1466 7.45716 17.054 7.51421 16.9512 7.5426C14.3782 8.25322 11.8886 9.23681 9.52466 10.4766L9.52241 10.4781C9.43691 10.5231 9.35216 10.5674 9.26741 10.6131C9.18584 10.6567 9.09477 10.6795 9.00228 10.6795C8.90979 10.6795 8.81873 10.6567 8.73716 10.6131C7.72328 10.072 6.68547 9.57701 5.62691 9.1296V8.9616C5.62691 8.86335 5.67716 8.7756 5.75591 8.72835C6.88794 8.04233 8.05255 7.41159 9.24566 6.83835C9.38012 6.7737 9.4834 6.65829 9.53277 6.5175C9.58214 6.3767 9.57355 6.22207 9.50891 6.0876C9.44426 5.95314 9.32885 5.84986 9.18805 5.80049C9.04726 5.75112 8.89262 5.7597 8.75816 5.82435C7.53249 6.41331 6.33609 7.06132 5.17316 7.7661C5.00771 7.86647 4.86498 8.0002 4.75406 8.15877C4.64314 8.31733 4.56646 8.49727 4.52891 8.6871C3.38981 8.2488 2.22992 7.86659 1.05341 7.54185C0.950579 7.51346 0.857945 7.45641 0.786312 7.37736C0.714678 7.29831 0.666999 7.20053 0.648837 7.09541C0.630676 6.99029 0.642779 6.88217 0.683737 6.78367C0.724695 6.68517 0.792817 6.60035 0.880157 6.5391C3.3583 4.80158 6.00366 3.31572 8.77691 2.1036Z" fill="white"/>
<path d="M9.79653 11.6048C11.6387 10.6206 13.5624 9.79707 15.546 9.14333C15.6465 10.2038 15.711 11.2756 15.7373 12.3563C15.7402 12.4696 15.7088 12.5812 15.6472 12.6763C15.5857 12.7715 15.4968 12.8458 15.3923 12.8896C13.2662 13.7775 11.2306 14.868 9.31353 16.1461C9.22114 16.2077 9.11258 16.2405 9.00153 16.2405C8.89049 16.2405 8.78193 16.2077 8.68953 16.1461C6.77271 14.8681 4.73732 13.7776 2.61153 12.8896C2.50698 12.846 2.41804 12.7718 2.35635 12.6768C2.29466 12.5818 2.26309 12.4703 2.26578 12.3571C2.29203 11.2756 2.35653 10.2046 2.45703 9.14258C3.14778 9.37058 3.82953 9.61808 4.50153 9.88508V10.8376C4.33948 10.9309 4.20327 11.0632 4.10521 11.2225C4.00715 11.3817 3.95033 11.5629 3.93991 11.7497C3.92949 11.9364 3.96578 12.1228 4.04551 12.2919C4.12524 12.4611 4.24588 12.6078 4.39653 12.7186C4.32903 13.0036 4.23003 13.2833 4.09878 13.5511C4.43778 13.7108 4.77453 13.8766 5.10828 14.0461C5.29641 13.6634 5.43527 13.2584 5.52153 12.8408C5.7112 12.7565 5.87383 12.6213 5.99145 12.4503C6.10906 12.2793 6.17706 12.079 6.18793 11.8718C6.1988 11.6645 6.15211 11.4582 6.05303 11.2758C5.95395 11.0935 5.80634 10.942 5.62653 10.8383V10.3546C6.50261 10.7373 7.36328 11.1544 8.20653 11.6048C8.45116 11.7355 8.72421 11.8038 9.00153 11.8038C9.27886 11.8038 9.55191 11.7355 9.79653 11.6048Z" fill="white"/>
<path d="M3.34553 14.5961C3.66053 14.2818 3.91028 13.9286 4.09553 13.5498C4.43528 13.7103 4.77203 13.8761 5.10578 14.0463C4.86038 14.5447 4.53452 14.9993 4.14128 15.3918C4.03465 15.4912 3.89362 15.5453 3.74789 15.5427C3.60216 15.5401 3.46312 15.4811 3.36006 15.378C3.25701 15.275 3.19797 15.1359 3.1954 14.9902C3.19283 14.8445 3.24692 14.7034 3.34628 14.5968L3.34553 14.5961Z" fill="white"/>
</svg>
