<svg width="18" height="18" viewBox="0 0 18 18" fill="none" xmlns="http://www.w3.org/2000/svg">
<path d="M12.9995 7.65734V2.08573C12.9995 1.48704 12.5125 1 11.9138 1H3.08573C2.48704 1 2 1.48704 2 2.08573V13.6637C2 14.2624 2.48704 14.7494 3.08573 14.7494H9.74967V16.4993C9.74967 16.8817 10.1637 17.1243 10.4977 16.9334L11.9996 16.0752C13.6584 17.0231 13.5717 16.9993 13.7495 16.9993C14.0256 16.9993 14.2495 16.7751 14.2495 16.4993V13.0924C16.029 11.3828 15.3242 8.41087 12.9995 7.65734ZM3.08573 13.7495C3.06299 13.7494 3.04119 13.7404 3.02511 13.7243C3.00903 13.7082 2.99998 13.6864 2.99996 13.6637V2.08573C2.99998 2.06299 3.00903 2.04119 3.02511 2.02511C3.04119 2.00903 3.06299 1.99998 3.08573 1.99996H11.9138C11.9365 1.99998 11.9583 2.00903 11.9744 2.02511C11.9905 2.04119 11.9995 2.06299 11.9996 2.08573V7.49972C10.2076 7.49972 8.74971 8.9576 8.74971 10.7496C8.74971 11.6692 9.1337 12.5007 9.74967 13.0924V13.7495H3.08573ZM13.2495 15.6378L12.2476 15.0653C12.1721 15.0221 12.0866 14.9994 11.9996 14.9994C11.9125 14.9994 11.827 15.0221 11.7515 15.0653L10.7496 15.6378V13.7493C11.5468 14.0828 12.4512 14.0832 13.2495 13.7493L13.2495 15.6378ZM11.9996 12.9995C10.759 12.9995 9.74967 11.9902 9.74967 10.7496C9.74967 9.50898 10.759 8.49968 11.9996 8.49968C13.2402 8.49968 14.2495 9.50898 14.2495 10.7496C14.2495 11.9902 13.2402 12.9995 11.9996 12.9995Z" fill="#1F2937"/>
<path d="M11.7491 12.031C11.5538 12.031 11.5289 11.9847 10.7223 11.4469C10.4925 11.2938 10.4304 10.9833 10.5836 10.7536C10.7368 10.5238 11.0472 10.4618 11.2769 10.6149L11.6109 10.8376L12.3335 9.75364C12.4867 9.52387 12.7972 9.46181 13.0269 9.61496C13.2567 9.76814 13.3188 10.0786 13.1656 10.3083L12.1656 11.8082C12.0692 11.9528 11.9107 12.031 11.7491 12.031ZM9.24968 4.49996H4.99986C4.72374 4.49996 4.49988 4.27609 4.49988 3.99998C4.49988 3.72387 4.72374 3.5 4.99986 3.5H9.24968C9.52582 3.5 9.74965 3.72387 9.74965 3.99998C9.74965 4.27609 9.52579 4.49996 9.24968 4.49996ZM9.24968 6.49987H4.99986C4.72374 6.49987 4.49988 6.27601 4.49988 5.99989C4.49988 5.72378 4.72374 5.49992 4.99986 5.49992H9.24968C9.52582 5.49992 9.74965 5.72378 9.74965 5.99989C9.74965 6.27601 9.52579 6.49987 9.24968 6.49987ZM7.49975 8.49979H4.99986C4.72374 8.49979 4.49988 8.27592 4.49988 7.99981C4.49988 7.7237 4.72374 7.49983 4.99986 7.49983H7.49975C7.77586 7.49983 7.99973 7.7237 7.99973 7.99981C7.99973 8.27592 7.77586 8.49979 7.49975 8.49979Z" fill="#1F2937"/>
</svg>
