<svg width="18" height="18" viewBox="0 0 18 18" fill="none" xmlns="http://www.w3.org/2000/svg">
<path d="M5.04985 11.9784C5.06602 11.233 4.47486 10.6156 3.72945 10.5995C2.98404 10.5833 2.36666 11.1744 2.35048 11.9198C2.33431 12.6653 2.92547 13.2826 3.67088 13.2988C4.41629 13.315 5.03367 12.7238 5.04985 11.9784Z" stroke="#1F2937" stroke-width="0.75" stroke-miterlimit="10" stroke-linecap="round" stroke-linejoin="round"/>
<path d="M14.2545 12.9047C14.7817 12.3775 14.7817 11.5227 14.2545 10.9956C13.7272 10.4684 12.8725 10.4684 12.3453 10.9956C11.8181 11.5228 11.8181 12.3776 12.3453 12.9048C12.8725 13.432 13.7273 13.432 14.2545 12.9047Z" stroke="#1F2937" stroke-width="0.75" stroke-miterlimit="10" stroke-linecap="round" stroke-linejoin="round"/>
<path d="M9.84685 12.046C9.89972 11.3023 9.33968 10.6566 8.59597 10.6037C7.85226 10.5508 7.20651 11.1109 7.15364 11.8546C7.10078 12.5983 7.66082 13.244 8.40452 13.2969C9.14823 13.3498 9.79398 12.7897 9.84685 12.046Z" stroke="#1F2937" stroke-width="0.75" stroke-miterlimit="10" stroke-linecap="round" stroke-linejoin="round"/>
<path d="M5.8 15.9998C5.8 15.5535 5.9083 15.1325 6.1 14.7616C5.65109 13.8933 4.74487 13.2998 3.7 13.2998C2.20884 13.2998 1 14.5085 1 15.9998V16.9998H5.8V15.9998ZM10.9 14.7616C11.0917 15.1326 11.2 15.5536 11.2 15.9998V16.9998H16V15.9998C16 14.5085 14.7912 13.2998 13.3 13.2998C12.2551 13.2998 11.3489 13.8933 10.9 14.7616Z" stroke="#1F2937" stroke-width="0.75" stroke-miterlimit="10" stroke-linecap="round" stroke-linejoin="round"/>
<path d="M11.2 16C11.2 14.5088 9.99117 13.3 8.50001 13.3C7.00885 13.3 5.80001 14.5088 5.80001 16V17H11.2V16ZM3.70001 3.755L8.49842 5.51L13.3 3.755L8.50001 2L3.70001 3.755Z" stroke="#1F2937" stroke-width="0.75" stroke-miterlimit="10" stroke-linecap="round" stroke-linejoin="round"/>
<path d="M13.3 3.75488V6.99989M11 4.59563V7.58564L8.4984 8.49989L6 7.58614V4.59563L8.49999 5.50988L11 4.59563Z" stroke="#1F2937" stroke-width="0.75" stroke-miterlimit="10" stroke-linecap="round" stroke-linejoin="round"/>
</svg>
