<svg width="80" height="80" viewBox="0 0 80 80" fill="none" xmlns="http://www.w3.org/2000/svg">
<path d="M40.0003 71.6667C44.6027 71.6667 48.3337 67.9357 48.3337 63.3333C48.3337 58.731 44.6027 55 40.0003 55C35.398 55 31.667 58.731 31.667 63.3333C31.667 67.9357 35.398 71.6667 40.0003 71.6667Z" fill="#F44336"/>
<path d="M40.0001 59.0167C50.5027 59.0167 59.0167 50.5027 59.0167 40.0001C59.0167 29.4974 50.5027 20.9834 40.0001 20.9834C29.4974 20.9834 20.9834 29.4974 20.9834 40.0001C20.9834 50.5027 29.4974 59.0167 40.0001 59.0167Z" fill="#F44336"/>
<path d="M40.0003 25.0002C44.6027 25.0002 48.3337 21.2692 48.3337 16.6668C48.3337 12.0645 44.6027 8.3335 40.0003 8.3335C35.398 8.3335 31.667 12.0645 31.667 16.6668C31.667 21.2692 35.398 25.0002 40.0003 25.0002Z" fill="#F44336"/>
<path d="M51.6668 68.5334C56.2692 68.5334 60.0002 64.8024 60.0002 60.2C60.0002 55.5977 56.2692 51.8667 51.6668 51.8667C47.0645 51.8667 43.3335 55.5977 43.3335 60.2C43.3335 64.8024 47.0645 68.5334 51.6668 68.5334Z" fill="#F44336"/>
<path d="M28.3333 28.1335C32.9357 28.1335 36.6667 24.4025 36.6667 19.8001C36.6667 15.1978 32.9357 11.4668 28.3333 11.4668C23.731 11.4668 20 15.1978 20 19.8001C20 24.4025 23.731 28.1335 28.3333 28.1335Z" fill="#F44336"/>
<path d="M60.2 60.0002C64.8024 60.0002 68.5334 56.2692 68.5334 51.6668C68.5334 47.0645 64.8024 43.3335 60.2 43.3335C55.5977 43.3335 51.8667 47.0645 51.8667 51.6668C51.8667 56.2692 55.5977 60.0002 60.2 60.0002Z" fill="#F44336"/>
<path d="M19.8001 36.6667C24.4025 36.6667 28.1335 32.9357 28.1335 28.3333C28.1335 23.731 24.4025 20 19.8001 20C15.1978 20 11.4668 23.731 11.4668 28.3333C11.4668 32.9357 15.1978 36.6667 19.8001 36.6667Z" fill="#F44336"/>
<path d="M63.3333 48.3337C67.9357 48.3337 71.6667 44.6027 71.6667 40.0003C71.6667 35.398 67.9357 31.667 63.3333 31.667C58.731 31.667 55 35.398 55 40.0003C55 44.6027 58.731 48.3337 63.3333 48.3337Z" fill="#F44336"/>
<path d="M16.6668 48.3337C21.2692 48.3337 25.0002 44.6027 25.0002 40.0003C25.0002 35.398 21.2692 31.667 16.6668 31.667C12.0645 31.667 8.3335 35.398 8.3335 40.0003C8.3335 44.6027 12.0645 48.3337 16.6668 48.3337Z" fill="#F44336"/>
<path d="M60.2 36.6667C64.8024 36.6667 68.5334 32.9357 68.5334 28.3333C68.5334 23.731 64.8024 20 60.2 20C55.5977 20 51.8667 23.731 51.8667 28.3333C51.8667 32.9357 55.5977 36.6667 60.2 36.6667Z" fill="#F44336"/>
<path d="M19.8001 60.0002C24.4025 60.0002 28.1335 56.2692 28.1335 51.6668C28.1335 47.0645 24.4025 43.3335 19.8001 43.3335C15.1978 43.3335 11.4668 47.0645 11.4668 51.6668C11.4668 56.2692 15.1978 60.0002 19.8001 60.0002Z" fill="#F44336"/>
<path d="M51.6668 28.1335C56.2692 28.1335 60.0002 24.4025 60.0002 19.8001C60.0002 15.1978 56.2692 11.4668 51.6668 11.4668C47.0645 11.4668 43.3335 15.1978 43.3335 19.8001C43.3335 24.4025 47.0645 28.1335 51.6668 28.1335Z" fill="#F44336"/>
<path d="M28.3333 68.5334C32.9357 68.5334 36.6667 64.8024 36.6667 60.2C36.6667 55.5977 32.9357 51.8667 28.3333 51.8667C23.731 51.8667 20 55.5977 20 60.2C20 64.8024 23.731 68.5334 28.3333 68.5334Z" fill="#F44336"/>
<path d="M25.9702 49.3085L49.3002 25.9785L54.0135 30.6919L30.6835 54.0218L25.9702 49.3085Z" fill="white"/>
<path d="M25.9702 30.6919L30.6835 25.9785L54.0135 49.3085L49.3002 54.0218L25.9702 30.6919Z" fill="white"/>
</svg>
